<?xml version="1.0" encoding="utf-8"?>
<!-- Generator: Adobe Illustrator 21.1.0, SVG Export Plug-In . SVG Version: 6.00 Build 0)  -->
<svg version="1.1"
	 id="svg880" inkscape:version="0.92.2 5c3e80d, 2017-08-06" sodipodi:docname="tinyLogo.svg" xmlns:cc="http://creativecommons.org/ns#" xmlns:dc="http://purl.org/dc/elements/1.1/" xmlns:inkscape="http://www.inkscape.org/namespaces/inkscape" xmlns:rdf="http://www.w3.org/1999/02/22-rdf-syntax-ns#" xmlns:sodipodi="http://sodipodi.sourceforge.net/DTD/sodipodi-0.dtd" xmlns:svg="http://www.w3.org/2000/svg"
	 xmlns="http://www.w3.org/2000/svg" xmlns:xlink="http://www.w3.org/1999/xlink" x="0px" y="0px" viewBox="0 0 75.6 91"
	 style="enable-background:new 0 0 75.6 91;" xml:space="preserve">
<style type="text/css">
	.st0{opacity:0.855;fill:#72FCFF;enable-background:new    ;}
	.st1{fill:#27658B;}
	.st2{opacity:0.855;fill:#3AB7D8;enable-background:new    ;}
	.st3{fill:#40BCDB;}
	.st4{opacity:0.984;fill:#62DEE8;enable-background:new    ;}
	.st5{opacity:0.707;fill:#225D85;enable-background:new    ;}
</style>
<sodipodi:namedview  bordercolor="#666666" borderopacity="1.0" id="base" inkscape:current-layer="layer1" inkscape:cx="124.14399" inkscape:cy="887.30757" inkscape:document-units="mm" inkscape:pageopacity="0.0" inkscape:pageshadow="2" inkscape:window-height="996" inkscape:window-maximized="1" inkscape:window-width="1920" inkscape:window-x="0" inkscape:window-y="0" inkscape:zoom="0.98994949" pagecolor="#ffffff" showgrid="false">
	</sodipodi:namedview>
<g id="layer1" inkscape:groupmode="layer" inkscape:label="Layer 1">
	
		<g id="g5373" transform="matrix(2.0595062,0,0,2.0595062,-246.81175,-249.55116)" inkscape:export-xdpi="96" inkscape:export-ydpi="96">
		<g id="g5363">
			<path id="path5167" inkscape:connector-curvature="0" sodipodi:nodetypes="ccccc" class="st0" d="M138.2,121.2
				c-1.5,0-18.4,29.2-18.4,29.2l18.4,14.9l-4.3-21L138.2,121.2z"/>
			<path id="path5169" inkscape:connector-curvature="0" sodipodi:nodetypes="ccccc" class="st1" d="M138.2,121.2l10,14.8l-10,29.4
				l-4.3-21L138.2,121.2z"/>
			<path id="path5173" inkscape:connector-curvature="0" sodipodi:nodetypes="cccc" class="st2" d="M133.9,144.4l-14.1,6l18.4,14.9
				L133.9,144.4z"/>
		</g>
		<g id="g5356" transform="matrix(0.87067996,0,0,0.84075907,16.447578,21.306622)">
			<path id="path5173-7" inkscape:connector-curvature="0" sodipodi:nodetypes="cccc" class="st3" d="M146.1,141.9l14.8,11.7
				l-18.4,14.9L146.1,141.9z"/>
			<path id="path5316" inkscape:connector-curvature="0" class="st4" d="M146.1,141.9l4.1,9.8l-7.6,16.8L146.1,141.9z"/>
			<path id="path5318" inkscape:connector-curvature="0" class="st5" d="M150.2,151.8l10.7,1.9l-18.4,14.9L150.2,151.8z"/>
		</g>
	</g>
</g>
</svg>
