<?xml version="1.0" encoding="utf-8"?>
<!-- Generator: Adobe Illustrator 22.1.0, SVG Export Plug-In . SVG Version: 6.00 Build 0)  -->
<svg version="1.1" xmlns="http://www.w3.org/2000/svg"  x="0px" y="0px"
	 viewBox="0 0 1696 935" style="enable-background:new 0 0 1696 935;" xml:space="preserve">
<style type="text/css">
	.st0{opacity:0.58;}
	.st1{fill:#999999;stroke:#000000;stroke-width:8;stroke-miterlimit:10;}
	.st2{fill:url(#SVGID_1_);fill-opacity:0.26;stroke:#000000;stroke-width:8;stroke-miterlimit:10;}
	.st3{fill:#666666;stroke:#000000;stroke-width:8;stroke-miterlimit:10;}
	.st4{fill:#4D4D4D;stroke:#000000;stroke-width:8;stroke-miterlimit:10;}
	.st5{fill:#B3B3B3;stroke:#000000;stroke-width:8;stroke-miterlimit:10;}
	.st6{fill:none;stroke:#000000;stroke-width:8;stroke-miterlimit:10;}
	.st7{fill:#FFFFFF;stroke:#000000;stroke-width:8;stroke-miterlimit:10;}
	.st8{fill:#999999;}
	.st9{fill:url(#SVGID_2_);fill-opacity:0.26;}
	.st10{fill:#3F62C7;}
	.st11{fill:url(#SVGID_3_);}
	.st12{fill:url(#SVGID_4_);}
	.st13{opacity:0.85;}
	.st14{fill:url(#SVGID_5_);}
	.st15{fill:url(#SVGID_6_);}
	.st16{fill:none;stroke:#3F62C7;stroke-width:16;stroke-miterlimit:10;}
	.st17{fill:none;stroke:#3F62C7;stroke-width:4;stroke-miterlimit:10;}
	.st18{fill:url(#SVGID_7_);}
	.st19{fill:url(#SVGID_8_);}
	.st20{fill:url(#SVGID_9_);}
	.st21{fill:#FFFFFF;}
</style>
<g id="图层_2">
</g>
<g id="图层_1">
	<g>
		<g class="st0">
			<path class="st1" d="M1397.3,699.5l2,33c0.1,2.3,1.8,4.3,4.1,4.9l131,33.5c4.1,1,5.5,6.1,2.5,9.1h0c-1.1,1.1-2.5,1.6-4,1.6
				l-224.5-6.6c-0.6,0-1.1-0.1-1.7-0.3l-19-6.8c-2.2-0.8-3.6-2.8-3.6-5.1c0-7.7,0-24.2,0-23.7c0,0.6,81.1-33.8,105.7-44.2
				C1393.3,693.4,1397.1,695.8,1397.3,699.5z"/>
			<linearGradient id="SVGID_1_" gradientUnits="userSpaceOnUse" x1="1151.145" y1="176.8659" x2="1325.0999" y2="176.8659">
				<stop  offset="0" style="stop-color:#FFFFFF"/>
				<stop  offset="1" style="stop-color:#000000"/>
			</linearGradient>
			<path class="st2" d="M1151.7,251.2c11-15.1,48.3-63.7,90.4-89c0.1-0.1,0.2-0.1,0.3-0.2c2.2-1.7,31.8-25.4,35-35.1
				c2.1-6.2,17.4-19.3,28.9-28.5c2.5-2,5.8,0.9,4.3,3.7c-11.9,21-28.9,61.2-1.3,85.1c38.5,33.5-3.3,0-16.7,3.3
				c-12.2,3.1-43.9,54.8-49.4,63.9c-0.5,0.9-1.4,1.4-2.5,1.4l-86.6-0.1C1151.7,255.8,1150.3,253.1,1151.7,251.2z"/>
			<path class="st3" d="M587.9,443.5c0,0,208.9-226.1,523.7-244.5l65.3,20.8l-28.5,27.8C1148.5,247.5,851.1,264.4,587.9,443.5z"/>
			<path class="st4" d="M303.2,668.2c0,0-32.1-89.1-65.6-95.8c-33.5-6.7-56.9-48.6-56.9-48.6s-5,35.2,0,56.9s41.9,65.3,41.9,65.3
				S243.2,688.6,303.2,668.2z"/>
			<path class="st4" d="M28.3,548.9c0,0,23.4,174.1,239.4,160.7L214,635.5C214,635.5,53.4,574,28.3,548.9z"/>
			<path class="st5" d="M468.6,778.3c0,0,185.9,87.1,341.6,50.2C965.9,791.7,981,764.9,981,764.9l-180.8,26.8L468.6,778.3z"/>
			<path class="st6" d="M1148.5,247.5c0,0-20.1,63.6-40.2,83.7"/>
			<path class="st6" d="M1242.2,254.2c0,0-117.2,316.5,82,338.2"/>
			<g>
				<path class="st6" d="M1458.2,337.9c-68.7,15.1-103.8-8.4-103.8-8.4"/>
				<path class="st7" d="M1441.5,346.3c21.8,21.8-11.7,53.6-26.8,60.3c-15.1,6.7-33.5-10-45.2-15.1c-11.7-5-75.3,75.3-75.3,75.3
					c3.3-55.3,70.3-93.8,68.7-97.1c-1.7-3.3,0-23.4,0-23.4l8.6-8.6c0,0,46.7,7.8,55,4.9C1434.8,339.6,1441.5,346.3,1441.5,346.3z"/>
				<circle cx="1415.5" cy="370.6" r="9.2"/>
			</g>
			<path class="st8" d="M1664.2,359.7c23.3,2.7-28.5,41.9-28.5,41.9l-58.6-5l-30.1,3.3C1547,399.9,1578.8,349.7,1664.2,359.7z"/>
			<path class="st6" d="M222.5,644.4c0,0,20.1,67,122.2,0S842,41.6,1657.5,348c0,0,6.7,6.7,6.7,10c0,3.3-88-18.1-117.2,40.2
				c-3.3,6.7,15.1,1.7,15.1,1.7l-21.8,35.2c0,0,25.1-40.2,43.5-40.2s100.5,11.7,88.7,46.9c-11.7,35.2-120.6,229.4-483.9,324.8
				c0,0-622.9,46.9-715,11.7S247.6,729.8,222.5,644.4z"/>
			<linearGradient id="SVGID_2_" gradientUnits="userSpaceOnUse" x1="954.2802" y1="679.6256" x2="954.2802" y2="259.0395">
				<stop  offset="0" style="stop-color:#FFFFFF"/>
				<stop  offset="1" style="stop-color:#000000"/>
			</linearGradient>
			<path class="st9" d="M240.5,672.1c0,0,8.4,20.5,99.2-5.9c119.7-34.8,289.5-123.6,483.9-175.8c279.8-75.2,592.6-109.3,726.7-90.4
				c0,0,6.3-41.9,106.1-41.9c99.8,0-465.4-181.4-797.3-53S411.7,585.8,411.7,585.8S318.7,691.4,240.5,672.1z"/>
			<path class="st1" d="M1558.7,443.4c0,0,30.1-20.1,65.3-20.1"/>
		</g>
		<g>
			<g>
				<rect x="628.5" y="120.8" class="st10" width="614.5" height="693.8"/>
				<linearGradient id="SVGID_3_" gradientUnits="userSpaceOnUse" x1="628.5349" y1="758.2481" x2="920.6312" y2="758.2481">
					<stop  offset="0" style="stop-color:#53E3B4"/>
					<stop  offset="1" style="stop-color:#4FCCC5;stop-opacity:0.6"/>
				</linearGradient>
				<path class="st11" d="M628.5,740c0,0,254.4-46.4,284.7-36.8c30.3,9.6-42.9,111.4-42.9,111.4H628.5V740z"/>
				<linearGradient id="SVGID_4_" gradientUnits="userSpaceOnUse" x1="870.3969" y1="760.3624" x2="1082.5265" y2="760.3624">
					<stop  offset="0" style="stop-color:#53E3B4"/>
					<stop  offset="1" style="stop-color:#4FCCC5;stop-opacity:0.6"/>
				</linearGradient>
				<path class="st12" d="M1082.5,814.6c0,0-149.2-78.4-164.7-108.5c0,0,18.9,14.3-47.5,108.5H1082.5z"/>
				<g class="st13">
					<linearGradient id="SVGID_5_" gradientUnits="userSpaceOnUse" x1="976.5901" y1="760.3446" x2="1115.5823" y2="760.3446">
						<stop  offset="0" style="stop-color:#53E3B4"/>
						<stop  offset="1" style="stop-color:#4FCCC5;stop-opacity:0.6"/>
					</linearGradient>
					<path class="st14" d="M976.6,753.6c0,0,93.9-29.7,130.5-29.7c36.6,0-57.2,73-57.2,73S987.3,761.6,976.6,753.6z"/>
					<linearGradient id="SVGID_6_" gradientUnits="userSpaceOnUse" x1="1049.9352" y1="771.691" x2="1242.8149" y2="771.691">
						<stop  offset="0" style="stop-color:#53E3B4"/>
						<stop  offset="1" style="stop-color:#4FCCC5;stop-opacity:0.6"/>
					</linearGradient>
					<path class="st15" d="M1242.8,814.6c0,0-114.8-62.4-127.2-85.9c0,0,7,9.5-65.6,68l32.6,17.9H1242.8z"/>
				</g>
			</g>
			<rect x="557.7" y="24" class="st16" width="756.3" height="887.4"/>
			<rect x="537.2" class="st17" width="797.2" height="935.5"/>
			<g>
				<g>
					<linearGradient id="SVGID_7_" gradientUnits="userSpaceOnUse" x1="725.9636" y1="447.9324" x2="852.9869" y2="447.9324">
						<stop  offset="0" style="stop-color:#53E3B4"/>
						<stop  offset="1" style="stop-color:#4FCCC5;stop-opacity:0.6"/>
					</linearGradient>
					<path class="st18" d="M810.8,596.9v-87.3H726v-12.9l81.2-197.8h21.1v194.6H853l-2.3,16.1h-22.4v87.3H810.8z M810.8,402.7
						c0-26.7,0.5-53.3,1.4-79.5h-0.5c-20,54.4-45.4,117.3-66.8,170.4h65.9V402.7z"/>
					<linearGradient id="SVGID_8_" gradientUnits="userSpaceOnUse" x1="880.7646" y1="447.9324" x2="991.4343" y2="447.9324">
						<stop  offset="0" style="stop-color:#53E3B4"/>
						<stop  offset="1" style="stop-color:#4FCCC5;stop-opacity:0.6"/>
					</linearGradient>
					<path class="st19" d="M991.4,367.4v162.3c0,56.6-25.4,70.9-55.8,70.9c-27.6,0-54.8-13.4-54.8-70V367.9
						c0-60.8,30.5-72.6,56.3-72.6C961.8,295.3,991.4,307.1,991.4,367.4z M898.8,367.8v161.6c0,37.3,11.8,53.7,37.7,53.7
						c21.9,0,36.8-10.1,36.8-54.6V368.2c0-43.5-16.7-55.4-37.3-55.4C915.1,312.8,898.8,322.9,898.8,367.8z"/>
					<linearGradient id="SVGID_9_" gradientUnits="userSpaceOnUse" x1="1018.3954" y1="447.9324" x2="1145.4187" y2="447.9324">
						<stop  offset="0" style="stop-color:#53E3B4"/>
						<stop  offset="1" style="stop-color:#4FCCC5;stop-opacity:0.6"/>
					</linearGradient>
					<path class="st20" d="M1103.2,596.9v-87.3h-84.8v-12.9l81.2-197.8h21.1v194.6h24.7l-2.3,16.1h-22.4v87.3H1103.2z M1103.2,402.7
						c0-26.7,0.5-53.3,1.4-79.5h-0.5c-20,54.4-45.4,117.3-66.8,170.4h65.9V402.7z"/>
				</g>
				<g>
					<path class="st21" d="M828,537.6c-5.8,0-8.9,4.8-10.6,13.1l-9.4,44.5c-2,9.2-0.1,14.1,6.6,14.1c5.9,0,8.8-4.6,10.8-13.8
						l9.4-44.1C836.7,542.4,834.6,537.6,828,537.6z"/>
					<path class="st21" d="M958.5,537.6c-5.8,0-8.9,4.8-10.6,13.1l-9.4,44.5c-2,9.2-0.1,14.1,6.6,14.1c5.9,0,8.8-4.6,10.8-13.8
						l9.4-44.1C967.2,542.4,965,537.6,958.5,537.6z"/>
					<path class="st21" d="M726.2,506.7v133.4h419.4V506.7H726.2z M778.8,615.9h-10.4c-0.8-19-2.9-63.1-2.9-69.3h-0.1
						c-1.7,10.8-4.1,23.8-7.4,39.1l-6.4,30.3H743l18-84.8h10.7c0.9,21.9,2.9,63.1,2.8,67.7h0.2c2.1-11.7,4.3-24,7.2-37.8l6.3-29.9
						h8.5L778.8,615.9z M843.5,552.7l-9,42.1c-3,13.9-7.4,22.2-20.8,22.2c-13.8,0-17.1-9.5-14.4-22.8l9.1-43.4
						c2.8-13.2,8.8-20.9,20.5-20.9C841.7,529.9,846.3,539.4,843.5,552.7z M859.8,615.9H851l16.3-76.7h-13.2l1.8-8.1H891l-1.8,8.1
						h-13.1L859.8,615.9z M921,575.3h-18.9l-8.6,40.6h-9l18-84.8h28.9l-1.8,8.1h-20l-5.8,28h18.9L921,575.3z M973.9,552.7l-9,42.1
						c-3,13.9-7.4,22.2-20.8,22.2c-13.8,0-17.1-9.5-14.4-22.8l9.1-43.4c2.8-13.2,8.8-20.9,20.5-20.9
						C972.2,529.9,976.8,539.4,973.9,552.7z M994.4,616.9c-12.1,0-17.2-6.9-14.3-20.5l13.9-65.3h8.8l-14,65.8
						c-1.4,6.6-0.5,12.1,6.5,12.1c6.9,0,9-5.2,10.5-12.2l14-65.7h8.9l-13.8,64.9C1011.9,609.2,1007.9,616.9,994.4,616.9z
						 M1052.9,615.9c-0.8-19-2.9-63.1-2.9-69.3h-0.1c-1.7,10.8-4.1,23.8-7.4,39.1l-6.4,30.3h-8.6l18-84.8h10.7
						c0.9,21.9,2.9,63.1,2.8,67.7h0.2c2.1-11.7,4.3-24,7.2-37.8l6.3-29.9h8.5l-18,84.8H1052.9z M1127.3,560.2l-6.2,29.1
						c-3.9,18.5-7.9,26.6-25.4,26.6h-15.2l18-84.8h13.1C1129,531.1,1131,543.2,1127.3,560.2z"/>
					<path class="st21" d="M1110.3,538.6h-4.6l-14.9,69.8h4.9c9.5,0,13.1-3.6,16.2-18.2l6.9-32.3
						C1121.8,544.5,1120.3,538.6,1110.3,538.6z"/>
				</g>
			</g>
		</g>
	</g>
</g>
</svg>
